<?xml version="1.0" encoding="UTF-8"?>
<svg width="155px" height="26px" viewBox="0 0 155 26" version="1.1" xmlns="http://www.w3.org/2000/svg" xmlns:xlink="http://www.w3.org/1999/xlink">
    <!-- Generator: Sketch 52.4 (67378) - http://www.bohemiancoding.com/sketch -->
    <title>LOGO</title>
    <desc>Created with Sketch.</desc>
    <g id="Page-1" stroke="none" stroke-width="1" fill="none" fill-rule="evenodd">
        <g id="Home-3.1" transform="translate(-48.000000, -50.000000)">
            <g id="BANER" transform="translate(-0.018095, 0.000000)">
                <g id="TOP" transform="translate(48.000000, 36.000000)">
                    <g id="LOGO" transform="translate(0.830595, 14.000000)">
                        <path d="M46.0889321,21.6163944 C44.6967162,21.6181211 43.3608776,21.058004 42.3754306,20.0593236 C41.3899836,19.0606431 40.8356953,17.7052507 40.8345631,16.2914648 C40.8345631,16.2582065 40.8345631,16.2256713 40.8345631,16.1938592 C40.7466802,13.2487891 43.0264637,10.7889912 45.926602,10.6997466 C48.8267403,10.6105021 51.2490102,12.925606 51.3368932,15.8706761 C51.3368932,15.9776808 51.3368932,16.0854085 51.3368932,16.1938592 C51.3614663,17.6073313 50.8319893,18.9728024 49.8649845,19.9897727 C48.8979797,21.0067431 47.5726916,21.5918736 46.1807767,21.6163944 L46.0889321,21.6163944 Z M46.0889321,12.779831 C44.2840776,12.779831 42.9811651,14.2070423 42.9811651,16.174338 C42.9811651,18.1416338 44.2904855,19.5948732 46.0889321,19.5948732 C47.8873787,19.5948732 49.196699,18.167662 49.196699,16.174338 C49.196699,14.1810141 47.8873787,12.7733239 46.0889321,12.7733239 L46.0889321,12.779831 Z" id="Shape" fill="#1C00FF" fill-rule="nonzero"></path>
                        <path d="M59.6584466,21.6163944 L59.6584466,14.9141408 C59.6584466,13.4478873 58.851068,12.623662 57.445631,12.623662 C56.0401942,12.623662 55.2798058,13.9576056 55.1516505,14.1918592 L55.1516505,21.6163944 L52.9708738,21.6163944 L52.9708738,10.8212113 L55,10.8212113 L55,11.8666761 C55.7234041,11.018644 56.7810247,10.5416612 57.8856311,10.5652676 C59.9752298,10.487156 61.7317182,12.1436584 61.8093204,14.2656056 C61.8093204,14.3812864 61.8093204,14.4962442 61.8093204,14.6104789 L61.8093204,21.6250704 L59.6584466,21.6163944 Z" id="Shape" fill="#1C00FF"></path>
                        <path d="M68.4584466,21.5383099 C67.6381057,21.5598686 66.8429562,21.2494751 66.2480604,20.6754664 C65.6531647,20.1014579 65.307296,19.3108953 65.286602,18.477831 C65.286602,18.3823944 65.286602,18.2869577 65.286602,18.1915211 L65.286602,12.7689859 L63.3642718,12.7689859 L63.3642718,10.7518028 L65.286602,10.7518028 L65.286602,6.54174648 L67.4524272,6.54174648 L67.4524272,10.7583099 L70.5495146,10.7583099 L70.5495146,12.775493 L67.4524272,12.775493 L67.4524272,18.1047606 C67.4524272,19.0135775 67.8796117,19.4777465 68.7168932,19.4777465 C69.0893868,19.4428293 69.4468152,19.3113846 69.7549515,19.096 L69.9279611,18.9680282 L70.7502913,20.8247042 L70.6050485,20.9027887 C69.9566544,21.3018421 69.2164345,21.5209909 68.4584466,21.5383099 Z" id="Shape" fill="#1C00FF"></path>
                        <path d="M72.3052428,21.5383099 L72.3052428,10.8212113 L74.3300971,10.8212113 L74.3300971,11.9447606 C74.9319451,11.0921165 75.8945286,10.5776445 76.9273786,10.5565915 C77.4427502,10.5556929 77.9541401,10.6482437 78.4374757,10.8298873 L78.6019417,10.8992958 L77.7945631,12.9078028 L77.6215534,12.8145352 C77.2894473,12.6699634 76.9295309,12.6032406 76.5685437,12.6193239 C75.2506796,12.6193239 74.5671845,13.9576056 74.4667961,14.1831831 L74.4667961,21.5101127 L72.3052428,21.5383099 Z" id="Shape" fill="#1C00FF"></path>
                        <path d="M83.5380583,21.5383099 C80.7613592,21.5383099 78.5869903,19.1307042 78.5869903,16.0528732 C78.5869903,12.9750423 80.7613592,10.5674366 83.5380583,10.5674366 C84.7561812,10.5249601 85.9323769,11.0220408 86.7611651,11.9295775 L86.7611651,10.8103662 L88.771068,10.8103662 L88.771068,21.5383099 L86.7611651,21.5383099 L86.7611651,20.171831 C85.9331507,21.0809687 84.7568494,21.5796772 83.5380583,21.5383099 Z M83.8840776,12.628 C82.0664077,12.628 80.7485437,14.0682254 80.7485437,16.0485352 C80.7485437,18.0288451 82.0664077,19.4690704 83.8840776,19.4690704 C84.9922629,19.4271951 86.0105145,18.8385202 86.6116505,17.8921972 L86.6116505,14.2048732 C86.009202,13.258422 84.9889189,12.671115 83.8798059,12.632338 L83.8840776,12.628 Z" id="Shape" fill="#1C00FF" fill-rule="nonzero"></path>
                        <path d="M95.6893204,21.5383099 C92.8071156,21.5275474 90.4788955,19.14675 90.4883495,16.2198873 C90.4883495,16.1880752 90.4883495,16.1569859 90.4883495,16.1266197 C90.4275396,13.2003274 92.7137151,10.7777511 95.5953398,10.7149296 L95.7064078,10.7149296 C97.2537557,10.7146683 98.7262494,11.3911921 99.7475728,12.5716056 L99.8479612,12.7039155 L98.3805825,14.0378592 L98.2652427,13.8903662 C97.6055532,13.1631175 96.6758215,12.7500579 95.7021359,12.7516338 C93.912233,12.7516338 92.6093204,14.172338 92.6093204,16.1266197 C92.6093204,18.0809014 93.9079612,19.5016056 95.7021359,19.5016056 C96.7600523,19.4948242 97.7565551,18.9960474 98.4062135,18.1481408 L98.5258252,17.9724507 L99.9248544,19.4387042 L99.8330097,19.560169 C98.80797,20.8095823 97.2907111,21.5339011 95.6893204,21.5383099 Z" id="Shape" fill="#1C00FF"></path>
                        <path d="M105.792233,21.5383099 C104.971892,21.5598686 104.176743,21.2494751 103.581847,20.6754664 C102.986951,20.1014579 102.641082,19.3108953 102.620388,18.477831 C102.620388,18.3823944 102.620388,18.2869577 102.620388,18.1915211 L102.620388,12.7689859 L100.698058,12.7689859 L100.698058,10.7518028 L102.620388,10.7518028 L102.620388,6.54174648 L104.779806,6.54174648 L104.779806,10.7583099 L107.876893,10.7583099 L107.876893,12.775493 L104.779806,12.775493 L104.779806,18.1047606 C104.779806,19.0135775 105.20699,19.4777465 106.044272,19.4777465 C106.416829,19.4431163 106.774326,19.3116462 107.08233,19.096 L107.25534,18.9680282 L108.07767,20.8225352 L107.932427,20.9006197 C107.286115,21.2993438 106.548231,21.519203 105.792233,21.5383099 Z" id="Shape" fill="#1C00FF"></path>
                        <path d="M115.092039,21.5383099 C113.89024,21.5716002 112.733507,21.0729262 111.922331,20.171831 L111.922331,21.5404789 L109.912427,21.5404789 L109.912427,6.54174648 L112.071845,6.54174648 L112.071845,11.7690704 C112.882167,10.9736019 113.971641,10.5394932 115.098446,10.5630986 C117.898641,10.5630986 120.092233,12.9707042 120.092233,16.0485352 C120.092233,19.1263662 117.892233,21.5383099 115.092039,21.5383099 Z M112.065437,17.8509859 C112.658028,18.8214512 113.688422,19.4276227 114.812233,19.4669014 C116.644854,19.4669014 117.924272,18.0592113 117.924272,16.0463662 C117.924272,14.0335211 116.614951,12.625831 114.812233,12.625831 C113.689369,12.6608337 112.657594,13.2619941 112.061165,14.2287324 L112.065437,17.8509859 Z" id="Shape" fill="#1C00FF" fill-rule="nonzero"></path>
                        <path d="M126.367573,21.6163944 C124.971043,21.6169723 123.631641,21.0534183 122.644746,20.0500131 C121.657853,19.0466079 121.104527,17.6857702 121.106796,16.2676056 C121.106796,16.2300094 121.106796,16.1924132 121.106796,16.1548169 C121.019503,13.2037573 123.304546,10.7395895 126.210583,10.6509439 C129.116619,10.5622983 131.543192,12.8827432 131.630485,15.8338028 C131.630485,15.9408075 131.630485,16.0485352 131.630485,16.1569859 C131.691291,19.1048386 129.387904,21.5448919 126.485049,21.6077183 L126.367573,21.6163944 Z M126.367573,12.7646479 C124.562719,12.7646479 123.255534,14.1961972 123.255534,16.1851831 C123.255534,18.174169 124.564854,19.6057183 126.367573,19.6057183 C128.170291,19.6057183 129.46466,18.1503099 129.46466,16.165662 C129.46466,14.1810141 128.170291,12.775493 126.367573,12.775493 L126.367573,12.7646479 Z" id="Shape" fill="#1C00FF" fill-rule="nonzero"></path>
                        <path d="M138.125825,21.6163944 C135.222361,21.6356259 132.852997,19.2615946 132.83301,16.3131549 C132.83301,16.2639906 132.83301,16.2148263 132.83301,16.165662 C132.742767,13.2152013 135.024942,10.7490914 137.930388,10.657451 C140.835835,10.5658106 143.264321,12.8833422 143.354563,15.8338028 C143.354563,15.9408075 143.354563,16.0485352 143.354563,16.1569859 C143.415369,19.1048386 141.111982,21.5448919 138.209126,21.6077183 L138.125825,21.6163944 Z M138.125825,12.7733239 C136.320971,12.7733239 135.013787,14.2048732 135.013787,16.1938592 C135.013787,18.1828451 136.323107,19.6143944 138.125825,19.6143944 C139.928544,19.6143944 141.237864,18.1828451 141.237864,16.1938592 C141.237864,14.2048732 139.913592,12.7733239 138.125825,12.7733239 Z" id="Shape" fill="#1C00FF" fill-rule="nonzero"></path>
                        <polygon id="Shape" fill="#1C00FF" points="150.992622 21.6163944 146.75068 17.0007324 146.75068 21.6163944 144.591263 21.6163944 144.591263 6.54174648 146.75068 6.54174648 146.75068 15.3783099 151.137864 10.7474648 154 10.7474648 148.79903 16.1114366 154 21.6163944"></polygon>
                        <path d="M34.8603884,21.6163944 C30.8234952,21.6163944 27.7840777,18.3867324 27.7840777,14.1029296 C27.7840777,9.81912676 30.8299029,6.58946479 34.8603884,6.58946479 C36.8039112,6.55939354 38.6681157,7.37105439 39.9866019,8.82138028 L40.0869903,8.94935211 L38.692233,10.3310141 L38.5768932,10.1791831 C37.6169987,9.13469572 36.2648532,8.55422623 34.8582525,8.58278873 C31.7697087,8.58278873 29.9221359,11.402507 29.9221359,14.1224507 C29.9221359,16.8423944 31.7697087,19.6621127 34.8582525,19.6621127 C36.3495032,19.6296781 37.7605165,18.969802 38.7541747,17.8401408 L38.8737864,17.6883099 L40.2535923,19.1155211 L40.1532039,19.2369859 C38.7932742,20.745505 36.874356,21.6081631 34.8603884,21.6163944 Z" id="Shape" fill="#1C00FF"></path>
                        <path d="M6.52951456,21.6120563 C5.30651178,21.6084823 4.31594664,20.6025704 4.31242719,19.3606197 L4.31242719,0.0281971831 L6.43339805,0.0281971831 L6.43339805,19.3584507 C6.43223956,19.3843441 6.44127079,19.4096419 6.45850024,19.4287659 C6.47572967,19.4478898 6.49974221,19.4592691 6.52524272,19.4603944 L13.9198058,19.4603944 L13.9198058,21.6142254 L6.52951456,21.6120563 Z" id="Shape" fill="#1C00FF"></path>
                        <polygon id="Shape" fill="#1C00FF" points="19.278835 21.6120563 14.9728155 21.6120563 14.9728155 19.4582254 17.1557282 19.4582254 17.1557282 6.9603662 12.4139806 2.17335211 4.31242719 2.17335211 4.31242719 0.0195211268 13.2897087 0.0195211268 19.278835 6.06239437"></polygon>
                        <polygon id="Shape" fill="#13DD77" points="14.9728155 25.8524789 12.8518446 25.8524789 12.8518446 9.09684507 10.2631068 6.48752113 6.42912621 6.48752113 6.42912621 4.33152113 11.1345631 4.33152113 14.9728155 8.20104225"></polygon>
                        <polygon id="Shape" fill="#13DD77" points="2.1807767 19.3541127 0.0598058253 19.3541127 0.0598058253 4.33152113 4.31242719 4.33152113 4.31242719 6.48752113 2.1807767 6.48752113"></polygon>
                        <path d="M14.8809709,25.8524789 L6.55087379,25.8524789 C4.85927928,25.8838252 3.22473365,25.231348 2.00696064,24.0386413 C0.789187656,22.8459347 0.0879848397,21.2107421 0.0576699029,19.4929296 C0.0576699029,19.4452113 0.0576699029,19.397493 0.0576699029,19.3497746 L2.17864078,19.3497746 C2.18688254,21.7497493 4.10633637,23.690209 6.46970874,23.6878028 L14.8788349,23.6878028 L14.8809709,25.8524789 Z" id="Shape" fill="#13DD77"></path>
                    </g>
                </g>
            </g>
        </g>
    </g>
</svg>