<?xml version="1.0" encoding="UTF-8"?>
<svg viewBox="0 0 750 194" version="1.1" xmlns="http://www.w3.org/2000/svg" xmlns:xlink="http://www.w3.org/1999/xlink">
    <defs>
        <circle id="fb-logo-circle-path" cx="62.5" cy="62.5" r="62.5"></circle>
    </defs>
    <g stroke="none" stroke-width="1" fill="none" fill-rule="evenodd">
            <path d="M238.040185,93.3676094 L203.450496,93.3676094 L203.450496,128.77892 L182,128.77892 L182,39.8843188 L241.523598,39.8843188 L241.523598,56.4299486 L203.450496,56.4299486 L203.450496,76.8830335 L238.040185,76.8830335 L238.040185,93.3676094 Z M281.533723,121.635605 C277.174341,127.211896 271.287227,130 263.872204,130 C256.620148,130 251.130261,127.893658 247.402379,123.680912 C243.674496,119.468167 241.810583,113.413707 241.810583,105.517352 L241.810583,62.718509 L262.405503,62.718509 L262.405503,105.63946 C262.405503,111.297158 265.155539,114.125964 270.655694,114.125964 C275.381753,114.125964 278.742908,112.436821 280.739261,109.058483 L280.739261,62.718509 L301.456406,62.718509 L301.456406,128.77892 L282.144849,128.77892 L281.533723,121.635605 Z M325.638387,62.718509 L326.310625,70.4723651 C330.873716,64.4890447 337.168244,61.4974293 345.194395,61.4974293 C352.079774,61.4974293 357.22336,63.5528929 360.625307,67.6638818 C364.027255,71.7748707 365.789315,77.9616125 365.911541,86.2242931 L365.911541,128.77892 L345.255507,128.77892 L345.255507,87.0790489 C345.255507,83.7414144 344.583276,81.2891039 343.238794,79.7220438 C341.894312,78.1549836 339.449836,77.3714653 335.905291,77.3714653 C331.871845,77.3714653 328.877361,78.958853 326.92175,82.1336761 L326.92175,128.77892 L306.32683,128.77892 L306.32683,62.718509 L325.638387,62.718509 Z M368.704139,95.2602828 C368.704139,84.7996479 370.96528,76.5574424 375.487629,70.533419 C380.009978,64.5093958 386.324876,61.4974293 394.432511,61.4974293 C400.340085,61.4974293 405.31052,63.8174576 409.343968,68.4575836 L409.343968,35 L430,35 L430,128.77892 L411.482906,128.77892 L410.443992,121.696658 C406.206836,127.232247 400.828988,130 394.310286,130 C386.447103,130 380.213687,126.988034 375.609854,120.96401 C371.006021,114.939987 368.704139,106.372164 368.704139,95.2602828 Z M389.299059,96.5424165 C389.299059,108.26484 392.721327,114.125964 399.565964,114.125964 C404.129055,114.125964 407.388357,112.212958 409.343968,108.38689 L409.343968,83.2326478 C407.46984,79.3251733 404.251279,77.3714653 399.688189,77.3714653 C393.332454,77.3714653 389.889816,82.4999488 389.360171,92.7570695 L389.299059,96.5424165 Z" fill="#304060" fill-rule="nonzero"></path>
            <path d="M438,128.77892 L438,39.8843188 L464.204591,39.8843188 C473.711421,39.8843188 480.92269,41.8482023 485.838614,45.7760283 C490.75454,49.7038543 493.212465,55.4937493 493.212465,63.1458869 C493.212465,67.7453101 491.963189,71.7443061 489.464599,75.1429949 C486.966009,78.5416837 483.543195,80.9736431 479.196055,82.4389461 C484.355745,83.5786261 488.509842,86.1225167 491.658472,90.0706941 C494.807102,94.0188716 496.381392,98.5775235 496.381392,103.746787 C496.381392,111.602439 493.85237,117.738303 488.794248,122.154564 C483.736128,126.570823 476.697523,128.77892 467.678223,128.77892 L438,128.77892 Z M445.495732,86.0411311 L445.495732,122.429306 L467.982928,122.429306 C474.402069,122.429306 479.490585,120.79104 483.248626,117.514461 C487.006668,114.23788 488.88566,109.689404 488.88566,103.868895 C488.88566,98.3740086 487.087921,94.0290434 483.49239,90.833869 C479.896858,87.6386944 474.930223,86.0411311 468.592337,86.0411311 L445.495732,86.0411311 Z M445.495732,79.7525707 L465.971877,79.7525707 C472.228509,79.6304622 477.073263,78.1550056 480.506285,75.3261569 C483.939307,72.4973081 485.655792,68.3762054 485.655792,62.962725 C485.655792,57.2643246 483.878367,53.0618174 480.323463,50.3550771 C476.768558,47.6483369 471.395654,46.2949872 464.204591,46.2949872 L445.495732,46.2949872 L445.495732,79.7525707 Z M537.254218,68.9460155 C535.710373,68.6610954 534.064985,68.5186376 532.318004,68.5186376 C527.767726,68.5186376 523.918331,69.7905828 520.769701,72.3345116 C517.621072,74.8784404 515.376437,78.5721695 514.03573,83.4158098 L514.03573,128.77892 L506.783762,128.77892 L506.783762,62.718509 L513.913849,62.718509 L514.03573,73.2197944 C517.89534,65.4048452 524.090938,61.4974293 532.622708,61.4974293 C534.654082,61.4974293 536.258843,61.7619939 537.43704,62.2911311 L537.254218,68.9460155 Z M550.947396,128.77892 L543.634487,128.77892 L543.634487,62.718509 L550.947396,62.718509 L550.947396,128.77892 Z M542.354728,43.6086118 C542.354728,42.2247146 542.801624,41.054525 543.695427,40.0980077 C544.589232,39.1414905 545.808038,38.6632391 547.351883,38.6632391 C548.895727,38.6632391 550.12469,39.1414905 551.038808,40.0980077 C551.952926,41.054525 552.409978,42.2247146 552.409978,43.6086118 C552.409978,44.9925091 551.952926,46.1525232 551.038808,47.0886889 C550.12469,48.0248547 548.895727,48.4929306 547.351883,48.4929306 C545.808038,48.4929306 544.589232,48.0248547 543.695427,47.0886889 C542.801624,46.1525232 542.354728,44.9925091 542.354728,43.6086118 Z M589.138821,123.833547 C594.217256,123.833547 598.472921,122.398794 601.905943,119.529242 C605.338964,116.65969 607.197643,112.94561 607.482035,108.38689 L614.49024,108.38689 C614.287103,112.416473 613.02767,116.08985 610.711904,119.407134 C608.396137,122.724417 605.318653,125.319185 601.479355,127.191517 C597.640059,129.063848 593.526589,130 589.138821,130 C580.485169,130 573.629384,126.988034 568.571264,120.96401 C563.513143,114.939987 560.98412,106.840239 560.98412,96.6645245 L560.98412,94.4665811 C560.98412,87.9541235 562.121673,82.1947552 564.396812,77.1883034 C566.67195,72.1818516 569.932256,68.3151379 574.177827,65.5880463 C578.423399,62.8609547 583.390034,61.4974293 589.07788,61.4974293 C596.309571,61.4974293 602.271564,63.6546486 606.964038,67.9691517 C611.656511,72.2836549 614.165221,77.9616187 614.49024,85.0032135 L607.482035,85.0032135 C607.157016,79.8339502 605.298336,75.6619696 601.905943,72.4871465 C598.513548,69.3123235 594.23757,67.7249358 589.07788,67.7249358 C582.496229,67.7249358 577.387401,70.1060173 573.751241,74.8682519 C570.115082,79.6304866 568.29703,86.3056555 568.29703,94.893959 L568.29703,97.0308485 C568.29703,105.45634 570.115082,112.029754 573.751241,116.751285 C577.387401,121.472817 582.516542,123.833547 589.138821,123.833547 Z M638.726197,95.5044988 L630.377292,103.563625 L630.377292,128.77892 L623.064383,128.77892 L623.064383,35 L630.377292,35 L630.377292,95.0160669 L637.263615,87.5674808 L662.493152,62.718509 L671.695229,62.718509 L643.723352,90.559126 L674.132866,128.77892 L665.418315,128.77892 L638.726197,95.5044988 Z M717.687091,111.989075 C717.687091,108.36652 716.234681,105.456309 713.329816,103.258355 C710.424951,101.0604 706.047406,99.3407304 700.19705,98.0992932 C694.346693,96.8578559 689.806641,95.4332772 686.576756,93.8255142 C683.346872,92.2177513 680.949887,90.2538677 679.385729,87.9338047 C677.821571,85.6137416 677.039503,82.8052864 677.039503,79.5083548 C677.039503,74.2983887 679.213041,69.9941258 683.560181,66.5954371 C687.907321,63.1967483 693.473202,61.4974293 700.257991,61.4974293 C707.611564,61.4974293 713.512616,63.318855 717.961325,66.961761 C722.410034,70.6046669 724.634354,75.3566546 724.634354,81.2178664 L717.321446,81.2178664 C717.321446,77.3510947 715.706527,74.135617 712.476643,71.5713368 C709.246758,69.0070566 705.173915,67.7249358 700.257991,67.7249358 C695.463949,67.7249358 691.614553,68.7933698 688.709688,70.93027 C685.804824,73.0671701 684.352413,75.8450986 684.352413,79.2641389 C684.352413,82.5610705 685.561063,85.1151367 687.978397,86.926414 C690.395732,88.7376912 694.803747,90.3963078 701.202575,91.9023137 C707.601402,93.4083195 712.395373,95.0160583 715.58463,96.7255785 C718.773887,98.4350986 721.140402,100.490562 722.684245,102.892031 C724.22809,105.2935 725,108.203711 725,111.622751 C725,117.199042 722.755366,121.655939 718.26603,124.993573 C713.776694,128.331208 707.916268,130 700.684577,130 C693.005984,130 686.779917,128.137872 682.006188,124.41356 C677.23246,120.689249 674.845631,115.977964 674.845631,110.279563 L682.158541,110.279563 C682.442933,114.553363 684.240672,117.880773 687.551811,120.26189 C690.86295,122.643007 695.240495,123.833547 700.684577,123.833547 C705.763012,123.833547 709.866325,122.714236 712.994641,120.475579 C716.122956,118.236921 717.687091,115.408115 717.687091,111.989075 Z" fill="#304060" fill-rule="nonzero"></path>
            <path d="M735.62459,63.1696429 L731.629171,63.1696429 L731.629171,74 L728.941669,74 L728.941669,63.1696429 L725,63.1696429 L725,61 L735.62459,61 L735.62459,63.1696429 Z M739.787494,61 L743.137913,70.4285714 L746.470414,61 L750,61 L750,74 L747.30354,74 L747.30354,70.4464285 L747.57229,64.3125 L744.051664,74 L742.206246,74 L738.694577,64.3214285 L738.963327,70.4464285 L738.963327,74 L736.275825,74 L736.275825,61 L739.787494,61 Z" fill="#304060" fill-rule="nonzero"></path>
            <g>
                <g transform="translate(88.500000, 88.500000) rotate(-45.000000) translate(-88.500000, -88.500000) translate(26.000000, 26.000000)">
                    <mask id="fb-logo-circle-mask" fill="white">
                        <use xlink:href="#fb-logo-circle-path"></use>
                    </mask>
                    <g mask="url(#fb-logo-circle-mask)" fill="#304060">
                        <g transform="translate(52.928932, 31.000000)">
                            <rect x="0" y="0" width="50" height="30" rx="3"></rect>
                        </g>
                    </g>
                    <g mask="url(#fb-logo-circle-mask)" fill="#304060">
                        <g transform="translate(35.000000, -4.000000)">
                            <rect x="0" y="0" width="50" height="30" rx="3"></rect>
                        </g>
                    </g>
                    <g mask="url(#fb-logo-circle-mask)" fill="#304060">
                        <g transform="translate(90.000000, -4.000000)">
                            <rect x="0" y="0" width="50" height="30" rx="3"></rect>
                        </g>
                    </g>
                    <g mask="url(#fb-logo-circle-mask)" fill="#304060">
                        <g transform="translate(107.928932, 31.000000)">
                            <rect x="0" y="0" width="50" height="30" rx="3"></rect>
                        </g>
                    </g>
                    <g mask="url(#fb-logo-circle-mask)" fill="#304060">
                        <g transform="translate(90.000000, 66.000000)">
                            <rect x="0" y="0" width="50" height="30" rx="3"></rect>
                        </g>
                    </g>
                    <g mask="url(#fb-logo-circle-mask)" fill="#304060">
                        <g transform="translate(62.000000, 101.000000)">
                            <rect x="0" y="0" width="50" height="30" rx="3"></rect>
                        </g>
                    </g>
                    <g mask="url(#fb-logo-circle-mask)">
                        <g transform="translate(-2.071068, 31.000000)">
                            <g>
                                <rect fill="#60AAFB" x="0" y="0" width="50" height="30" rx="3"></rect>
                                <rect fill="#356597" x="0" y="4" width="50" height="5"></rect>
                                <rect fill="#BCDCFD" x="5" y="15" width="14" height="7"></rect>
                                <rect fill="#BCDCFD" x="25" y="15" width="18" height="3"></rect>
                                <rect fill="#BCDCFD" x="25" y="19" width="9" height="3"></rect>
                            </g>
                        </g>
                    </g>
                    <g mask="url(#fb-logo-circle-mask)">
                        <g transform="translate(-20.000000, -4.000000)">
                            <g>
                                <rect fill="#60AAFB" x="0" y="0" width="50" height="30" rx="3"></rect>
                                <rect fill="#356597" x="0" y="4" width="50" height="5"></rect>
                                <rect fill="#BCDCFD" x="5" y="15" width="14" height="7"></rect>
                                <rect fill="#BCDCFD" x="25" y="15" width="18" height="3"></rect>
                                <rect fill="#BCDCFD" x="25" y="19" width="9" height="3"></rect>
                            </g>
                        </g>
                    </g>
                    <g mask="url(#fb-logo-circle-mask)">
                        <g transform="translate(-20.000000, 66.000000)">
                            <g>
                                <rect fill="#60AAFB" x="0" y="0" width="50" height="30" rx="3"></rect>
                                <rect fill="#356597" x="0" y="4" width="50" height="5"></rect>
                                <rect fill="#BCDCFD" x="5" y="15" width="14" height="7"></rect>
                                <rect fill="#BCDCFD" x="25" y="15" width="18" height="3"></rect>
                                <rect fill="#BCDCFD" x="25" y="19" width="9" height="3"></rect>
                            </g>
                        </g>
                    </g>
                    <g mask="url(#fb-logo-circle-mask)">
                        <g transform="translate(35.000000, 66.000000)">
                            <g>
                                <rect fill="#60AAFB" x="0" y="0" width="50" height="30" rx="3"></rect>
                                <rect fill="#356597" x="0" y="4" width="50" height="5"></rect>
                                <rect fill="#BCDCFD" x="5" y="15" width="14" height="7"></rect>
                                <rect fill="#BCDCFD" x="25" y="15" width="18" height="3"></rect>
                                <rect fill="#BCDCFD" x="25" y="19" width="9" height="3"></rect>
                            </g>
                        </g>
                    </g>
                    <g mask="url(#fb-logo-circle-mask)">
                        <g transform="translate(7.000000, 101.000000)">
                            <g>
                                <rect fill="#60AAFB" x="0" y="0" width="50" height="30" rx="3"></rect>
                                <rect fill="#356597" x="0" y="4" width="50" height="5"></rect>
                                <rect fill="#BCDCFD" x="5" y="15" width="14" height="7"></rect>
                                <rect fill="#BCDCFD" x="25" y="15" width="18" height="3"></rect>
                                <rect fill="#BCDCFD" x="25" y="19" width="9" height="3"></rect>
                            </g>
                        </g>
                    </g>
                </g>
            </g>
            <path d="M498.206597,162.625 L487.878472,162.625 L485.534722,169 L483.519097,169 L492.128472,146.25 L493.956597,146.25 L502.565972,169 L500.565972,169 L498.206597,162.625 Z M488.472222,160.984375 L497.597222,160.984375 L493.034722,148.59375 L488.472222,160.984375 Z M511.913195,169 L511.913195,146.25 L518.631945,146.25 C521.069457,146.25 522.918397,146.752599 524.17882,147.757812 C525.439243,148.763026 526.069445,150.244782 526.069445,152.203125 C526.069445,153.380214 525.749135,154.403641 525.108507,155.273438 C524.467879,156.143234 523.590283,156.765623 522.475695,157.140625 C523.798618,157.432293 524.863711,158.083328 525.671007,159.09375 C526.478303,160.104172 526.881945,161.270827 526.881945,162.59375 C526.881945,164.604177 526.233514,166.174474 524.936632,167.304688 C523.639751,168.434901 521.835081,169 519.52257,169 L511.913195,169 Z M513.83507,158.0625 L513.83507,167.375 L519.600695,167.375 C521.246536,167.375 522.551211,166.955733 523.514757,166.117188 C524.478304,165.278642 524.96007,164.114591 524.96007,162.625 C524.96007,161.218743 524.499137,160.106775 523.577257,159.289062 C522.655377,158.47135 521.381953,158.0625 519.756945,158.0625 L513.83507,158.0625 Z M513.83507,156.453125 L519.08507,156.453125 C520.689244,156.421875 521.931419,156.044274 522.811632,155.320312 C523.691845,154.596351 524.131945,153.541674 524.131945,152.15625 C524.131945,150.697909 523.67622,149.622399 522.764757,148.929688 C521.853294,148.236976 520.475704,147.890625 518.631945,147.890625 L513.83507,147.890625 L513.83507,156.453125 Z M538.008681,153.6875 C537.612845,153.614583 537.190975,153.578125 536.743056,153.578125 C535.576383,153.578125 534.589414,153.903643 533.782118,154.554688 C532.974822,155.205732 532.399307,156.151035 532.055556,157.390625 L532.055556,169 L530.196181,169 L530.196181,152.09375 L532.024306,152.09375 L532.055556,154.78125 C533.045144,152.78124 534.63367,151.78125 536.821181,151.78125 C537.342017,151.78125 537.753471,151.848958 538.055556,151.984375 L538.008681,153.6875 Z M542.166667,169 L540.291667,169 L540.291667,152.09375 L542.166667,152.09375 L542.166667,169 Z M539.963542,147.203125 C539.963542,146.848957 540.078124,146.54948 540.307292,146.304688 C540.53646,146.059895 540.848956,145.9375 541.244792,145.9375 C541.640627,145.9375 541.955728,146.059895 542.190104,146.304688 C542.42448,146.54948 542.541667,146.848957 542.541667,147.203125 C542.541667,147.557293 542.42448,147.854165 542.190104,148.09375 C541.955728,148.333335 541.640627,148.453125 541.244792,148.453125 C540.848956,148.453125 540.53646,148.333335 540.307292,148.09375 C540.078124,147.854165 539.963542,147.557293 539.963542,147.203125 Z M552.605903,167.734375 C553.907993,167.734375 554.999128,167.367191 555.87934,166.632812 C556.759553,165.898434 557.236111,164.947923 557.309028,163.78125 L559.105903,163.78125 C559.053819,164.812505 558.730906,165.7526 558.137153,166.601562 C557.5434,167.450525 556.754345,168.114581 555.769965,168.59375 C554.785585,169.072919 553.730908,169.3125 552.605903,169.3125 C550.387142,169.3125 548.629347,168.541674 547.332465,167 C546.035584,165.458326 545.387153,163.38543 545.387153,160.78125 L545.387153,160.21875 C545.387153,158.552075 545.678817,157.078131 546.262153,155.796875 C546.845489,154.515619 547.681418,153.526045 548.769965,152.828125 C549.858512,152.130205 551.131937,151.78125 552.590278,151.78125 C554.444454,151.78125 555.973084,152.333328 557.176215,153.4375 C558.379346,154.541672 559.022569,155.994783 559.105903,157.796875 L557.309028,157.796875 C557.225694,156.473952 556.749136,155.406254 555.87934,154.59375 C555.009544,153.781246 553.913201,153.375 552.590278,153.375 C550.902769,153.375 549.592887,153.984369 548.66059,155.203125 C547.728294,156.421881 547.262153,158.130197 547.262153,160.328125 L547.262153,160.875 C547.262153,163.031261 547.728294,164.713536 548.66059,165.921875 C549.592887,167.130214 550.907978,167.734375 552.605903,167.734375 Z M565.967014,160.484375 L563.826389,162.546875 L563.826389,169 L561.951389,169 L561.951389,145 L563.826389,145 L563.826389,160.359375 L565.592014,158.453125 L572.060764,152.09375 L574.420139,152.09375 L567.248264,159.21875 L575.045139,169 L572.810764,169 L565.967014,160.484375 Z M586.859375,164.703125 C586.859375,163.776037 586.486983,163.031253 585.742188,162.46875 C584.997392,161.906247 583.875008,161.466147 582.375,161.148438 C580.874993,160.830728 579.710942,160.466148 578.882813,160.054688 C578.054683,159.643227 577.440106,159.140628 577.039063,158.546875 C576.638019,157.953122 576.4375,157.234379 576.4375,156.390625 C576.4375,155.057285 576.994786,153.955734 578.109375,153.085938 C579.223964,152.216141 580.651033,151.78125 582.390625,151.78125 C584.276051,151.78125 585.789057,152.247391 586.929688,153.179688 C588.070318,154.111984 588.640625,155.328117 588.640625,156.828125 L586.765625,156.828125 C586.765625,155.838537 586.351567,155.015628 585.523438,154.359375 C584.695308,153.703122 583.651048,153.375 582.390625,153.375 C581.161452,153.375 580.174483,153.648435 579.429688,154.195312 C578.684892,154.74219 578.3125,155.453121 578.3125,156.328125 C578.3125,157.171879 578.622393,157.825519 579.242188,158.289062 C579.861982,158.752606 580.992179,159.177081 582.632813,159.5625 C584.273446,159.947919 585.5026,160.359373 586.320313,160.796875 C587.138025,161.234377 587.74479,161.760414 588.140625,162.375 C588.53646,162.989586 588.734375,163.734371 588.734375,164.609375 C588.734375,166.036465 588.15886,167.177079 587.007813,168.03125 C585.856765,168.885421 584.354176,169.3125 582.5,169.3125 C580.53124,169.3125 578.934902,168.835942 577.710938,167.882812 C576.486973,166.929683 575.875,165.723966 575.875,164.265625 L577.75,164.265625 C577.822917,165.35938 578.28385,166.210934 579.132813,166.820312 C579.981775,167.429691 581.10416,167.734375 582.5,167.734375 C583.80209,167.734375 584.854163,167.44792 585.65625,166.875 C586.458337,166.30208 586.859375,165.578129 586.859375,164.703125 Z M615.487847,161.90625 C615.227429,164.302095 614.370667,166.13541 612.917535,167.40625 C611.464403,168.67709 609.529526,169.3125 607.112847,169.3125 C605.425339,169.3125 603.933166,168.890629 602.636285,168.046875 C601.339403,167.203121 600.336809,166.00782 599.628472,164.460938 C598.920135,162.914055 598.560764,161.145843 598.550347,159.15625 L598.550347,156.203125 C598.550347,154.182282 598.90451,152.390633 599.612847,150.828125 C600.321184,149.265617 601.339403,148.0599 602.667535,147.210938 C603.995666,146.361975 605.524297,145.9375 607.253472,145.9375 C609.690984,145.9375 611.615444,146.596348 613.02691,147.914062 C614.438375,149.231777 615.258679,151.052072 615.487847,153.375 L613.550347,153.375 C613.071178,149.510397 610.972241,147.578125 607.253472,147.578125 C605.190962,147.578125 603.547749,148.348951 602.323785,149.890625 C601.09982,151.432299 600.487847,153.562486 600.487847,156.28125 L600.487847,159.0625 C600.487847,161.687513 601.084195,163.781242 602.27691,165.34375 C603.469624,166.906258 605.081587,167.6875 607.112847,167.6875 C609.123274,167.6875 610.638884,167.205734 611.659722,166.242188 C612.680561,165.278641 613.310763,163.833343 613.550347,161.90625 L615.487847,161.90625 Z M617.802083,160.296875 C617.802083,158.671867 618.117184,157.20834 618.747396,155.90625 C619.377607,154.60416 620.268223,153.591149 621.419271,152.867188 C622.570318,152.143226 623.874993,151.78125 625.333333,151.78125 C627.583345,151.78125 629.406243,152.570305 630.802083,154.148438 C632.197924,155.72657 632.895833,157.817695 632.895833,160.421875 L632.895833,160.8125 C632.895833,162.447925 632.580732,163.919264 631.950521,165.226562 C631.320309,166.533861 630.432297,167.541663 629.286458,168.25 C628.140619,168.958337 626.833341,169.3125 625.364583,169.3125 C623.124989,169.3125 621.304695,168.523445 619.903646,166.945312 C618.502597,165.36718 617.802083,163.276055 617.802083,160.671875 L617.802083,160.296875 Z M619.677083,160.8125 C619.677083,162.833343 620.200516,164.492181 621.247396,165.789062 C622.294276,167.085944 623.666658,167.734375 625.364583,167.734375 C627.052092,167.734375 628.419266,167.085944 629.466146,165.789062 C630.513026,164.492181 631.036458,162.781261 631.036458,160.65625 L631.036458,160.296875 C631.036458,159.005202 630.796877,157.822922 630.317708,156.75 C629.838539,155.677078 629.166671,154.846357 628.302083,154.257812 C627.437496,153.669268 626.447922,153.375 625.333333,153.375 C623.666658,153.375 622.307297,154.028639 621.255208,155.335938 C620.20312,156.643236 619.677083,158.354156 619.677083,160.46875 L619.677083,160.8125 Z M637.569444,152.09375 L637.631944,154.84375 C638.256948,153.822912 639.03819,153.057294 639.975694,152.546875 C640.913199,152.036456 641.954855,151.78125 643.100694,151.78125 C645.767374,151.78125 647.460066,152.874989 648.178819,155.0625 C648.782989,154.010411 649.590273,153.200524 650.600694,152.632812 C651.611116,152.065101 652.725688,151.78125 653.944444,151.78125 C657.569463,151.78125 659.418402,153.760397 659.491319,157.71875 L659.491319,169 L657.616319,169 L657.616319,157.859375 C657.605903,156.348951 657.280385,155.22917 656.639757,154.5 C655.999129,153.77083 654.954868,153.40625 653.506944,153.40625 C652.163188,153.427083 651.027782,153.861975 650.100694,154.710938 C649.173607,155.5599 648.657987,156.593744 648.553819,157.8125 L648.553819,169 L646.678819,169 L646.678819,157.71875 C646.668403,156.270826 646.32726,155.190108 645.655382,154.476562 C644.983504,153.763017 643.94966,153.40625 642.553819,153.40625 C641.37673,153.40625 640.366324,153.742184 639.522569,154.414062 C638.678815,155.085941 638.053822,156.083327 637.647569,157.40625 L637.647569,169 L635.772569,169 L635.772569,152.09375 L637.569444,152.09375 Z M676.930556,160.71875 C676.930556,163.35418 676.347228,165.445305 675.180556,166.992188 C674.013883,168.53907 672.451399,169.3125 670.493056,169.3125 C668.180544,169.3125 666.409728,168.500008 665.180556,166.875 L665.180556,175.5 L663.321181,175.5 L663.321181,152.09375 L665.055556,152.09375 L665.149306,154.484375 C666.368062,152.682283 668.133669,151.78125 670.446181,151.78125 C672.467024,151.78125 674.052946,152.546867 675.203993,154.078125 C676.355041,155.609383 676.930556,157.734361 676.930556,160.453125 L676.930556,160.71875 Z M675.055556,160.390625 C675.055556,158.234364 674.612852,156.531256 673.727431,155.28125 C672.842009,154.031244 671.607647,153.40625 670.024306,153.40625 C668.878467,153.40625 667.894101,153.682289 667.071181,154.234375 C666.24826,154.786461 665.618058,155.588536 665.180556,156.640625 L665.180556,164.75 C665.628474,165.718755 666.269093,166.458331 667.102431,166.96875 C667.935768,167.479169 668.920133,167.734375 670.055556,167.734375 C671.62848,167.734375 672.85503,167.106777 673.735243,165.851562 C674.615456,164.596348 675.055556,162.776054 675.055556,160.390625 Z M690.854167,169 C690.666666,168.468747 690.546875,167.682297 690.494792,166.640625 C689.838538,167.494796 689.002609,168.153644 687.986979,168.617188 C686.971349,169.080731 685.895839,169.3125 684.760417,169.3125 C683.135409,169.3125 681.820318,168.85938 680.815104,167.953125 C679.809891,167.04687 679.307292,165.901049 679.307292,164.515625 C679.307292,162.869783 679.992181,161.567713 681.361979,160.609375 C682.731778,159.651037 684.640613,159.171875 687.088542,159.171875 L690.479167,159.171875 L690.479167,157.25 C690.479167,156.041661 690.106775,155.091149 689.361979,154.398438 C688.617184,153.705726 687.531257,153.359375 686.104167,153.359375 C684.802077,153.359375 683.723963,153.692705 682.869792,154.359375 C682.015621,155.026045 681.588542,155.82812 681.588542,156.765625 L679.713542,156.75 C679.713542,155.406243 680.338535,154.242192 681.588542,153.257812 C682.838548,152.273433 684.374991,151.78125 686.197917,151.78125 C688.083343,151.78125 689.570307,152.252599 690.658854,153.195312 C691.747401,154.138026 692.307292,155.453117 692.338542,157.140625 L692.338542,165.140625 C692.338542,166.77605 692.510415,167.999996 692.854167,168.8125 L692.854167,169 L690.854167,169 Z M684.979167,167.65625 C686.229173,167.65625 687.346349,167.35417 688.330729,166.75 C689.315109,166.14583 690.031248,165.338547 690.479167,164.328125 L690.479167,160.609375 L687.135417,160.609375 C685.270824,160.630208 683.812505,160.971351 682.760417,161.632812 C681.708328,162.294274 681.182292,163.203119 681.182292,164.359375 C681.182292,165.307296 681.533851,166.093747 682.236979,166.71875 C682.940108,167.343753 683.854161,167.65625 684.979167,167.65625 Z M698.215278,152.09375 L698.277778,154.984375 C698.913198,153.942703 699.704856,153.14844 700.652778,152.601562 C701.600699,152.054685 702.647564,151.78125 703.793403,151.78125 C705.605912,151.78125 706.954857,152.291662 707.840278,153.3125 C708.725699,154.333338 709.173611,155.864573 709.184028,157.90625 L709.184028,169 L707.324653,169 L707.324653,157.890625 C707.314236,156.380201 706.993927,155.255212 706.363715,154.515625 C705.733504,153.776038 704.725701,153.40625 703.340278,153.40625 C702.184022,153.40625 701.160595,153.768226 700.269965,154.492188 C699.379336,155.216149 698.720488,156.192702 698.293403,157.421875 L698.293403,169 L696.434028,169 L696.434028,152.09375 L698.215278,152.09375 Z M718.482639,166.3125 L723.420139,152.09375 L725.435764,152.09375 L718.217014,171.875 L717.842014,172.75 C716.914926,174.802094 715.482649,175.828125 713.545139,175.828125 C713.09722,175.828125 712.618058,175.755209 712.107639,175.609375 L712.092014,174.0625 L713.060764,174.15625 C713.977435,174.15625 714.719615,173.92969 715.287326,173.476562 C715.855038,173.023435 716.336804,172.244797 716.732639,171.140625 L717.560764,168.859375 L711.185764,152.09375 L713.232639,152.09375 L718.482639,166.3125 Z" fill="#304060"></path>
    </g>
</svg>
